# xmcd
#
# Track frame offsets:
#	150
#	30920
#	33215
#	51607
#	67472
#	86907
#	110304
#	124422
#	141680
#	159012
#	179400
#	196152
#	216197
#	234582
#	250909
#	268395
#	284072
#	300717
#	317490
#	340307
#
# Disc length: 4641 seconds
#
# Revision: 5
# Processed by: cddbd v1.5.2PL0 Copyright (c) Steve Scherf et al.
# Submitted via: EZCDAudioConverter 1.3.4.1
#
DISCID=3c121f14
DTITLE=Third World - Ultimate
DYEAR=2001
DGENRE=
TTITLE0=Satta Massagana
TTITLE1=Kumina
TTITLE2=Human Market Place
TTITLE3=Dreamland
TTITLE4=1865 (96 Degrees In The Shade)
TTITLE5=Jah Glory
TTITLE6=Cool Meditation
TTITLE7=Now That We Found Love [Single]
TTITLE8=Uptown Rebel
TTITLE9=Always Around
TTITLE10=Roots With Quality
TTITLE11=Who Gave You (Jah Rastafari) [Single]
TTITLE12=Try Jah Love [Single]
TTITLE13=Sense Of Purpose [Single]
TTITLE14=Dem Man Deh
TTITLE15=Reggae Ambassador
TTITLE16=Forbidden Love [Single]
TTITLE17=Committed [Single]
TTITLE18=Take This Song
TTITLE19=One Song (Nyahbinghi)
EXTD=
EXTT0=
EXTT1=
EXTT2=
EXTT3=
EXTT4=
EXTT5=
EXTT6=
EXTT7=
EXTT8=
EXTT9=
EXTT10=
EXTT11=
EXTT12=
EXTT13=
EXTT14=
EXTT15=
EXTT16=
EXTT17=
EXTT18=
EXTT19=
PLAYORDER=
